# Blender v2.90.1 OBJ File: '0,2.blend'
# www.blender.org
mtllib 3.mtl
o house_stuff.010
v 21.144531 0.348457 -0.998154
v 21.144531 0.348457 -0.560075
v 21.144531 -0.116594 -0.560075
v 21.144531 -0.116594 -0.998154
v 21.144531 4.487992 -0.998152
v 21.144531 4.487992 -0.560074
v 20.710693 4.487992 -0.560074
v 20.710693 0.348457 -0.560075
v 20.710693 0.348457 -0.998154
v 20.710693 4.487992 -0.998152
v 16.165066 4.155195 -0.902931
v 16.165066 4.379121 -0.830089
v 20.710693 4.379121 -0.830089
v 20.710693 4.155195 -0.902931
v 16.165066 4.379121 -0.728137
v 20.710693 4.379121 -0.728137
v 16.165066 3.931269 -0.830089
v 20.710693 3.931269 -0.830089
v 16.165066 3.707343 -0.902931
v 20.710693 3.707343 -0.902931
v 16.165066 3.483417 -0.830089
v 20.710693 3.483417 -0.830089
v 16.165066 3.259493 -0.902931
v 20.710693 3.259493 -0.902931
v 16.165066 3.035567 -0.830090
v 20.710693 3.035567 -0.830090
v 16.165066 2.811641 -0.902932
v 20.710693 2.811641 -0.902932
v 16.165066 2.587715 -0.830090
v 20.710693 2.587715 -0.830090
v 16.165066 2.363789 -0.902932
v 20.710693 2.363789 -0.902932
v 16.165066 2.139863 -0.830090
v 20.710693 2.139863 -0.830090
v 16.165066 1.915937 -0.902932
v 20.710693 1.915937 -0.902932
v 16.165066 1.692011 -0.830090
v 20.710693 1.692011 -0.830090
v 16.165066 1.468085 -0.902932
v 20.710693 1.468085 -0.902932
v 16.165066 1.244159 -0.830090
v 20.710693 1.244159 -0.830090
v 16.165066 1.020233 -0.902932
v 20.710693 1.020233 -0.902932
v 16.165066 0.796309 -0.830090
v 20.710693 0.796309 -0.830090
v 16.165066 0.572383 -0.902932
v 20.710693 0.572383 -0.902932
v 16.165066 0.348457 -0.830090
v 20.710693 0.348457 -0.830090
v 20.710693 4.155195 -0.655297
v 16.165066 4.155195 -0.655297
v 20.710693 3.931269 -0.728138
v 16.165066 3.931269 -0.728138
v 20.710693 3.707343 -0.655297
v 16.165066 3.707343 -0.655297
v 20.710693 3.483417 -0.728138
v 16.165066 3.483417 -0.728138
v 20.710693 3.259491 -0.655297
v 16.165066 3.259493 -0.655297
v 20.710693 3.035565 -0.728139
v 16.165066 3.035567 -0.728139
v 20.710693 2.811641 -0.655299
v 16.165066 2.811641 -0.655299
v 20.710693 2.587715 -0.728139
v 16.165066 2.587715 -0.728139
v 20.710693 2.363789 -0.655299
v 16.165066 2.363789 -0.655299
v 20.710693 2.139863 -0.728139
v 16.165066 2.139863 -0.728139
v 20.710693 1.915937 -0.655299
v 16.165066 1.915937 -0.655299
v 20.710693 1.692011 -0.728139
v 16.165066 1.692011 -0.728139
v 20.710693 1.468085 -0.655299
v 16.165066 1.468085 -0.655299
v 20.710693 1.244159 -0.728139
v 16.165066 1.244159 -0.728139
v 20.710693 1.020233 -0.655299
v 16.165066 1.020233 -0.655299
v 20.710693 0.796309 -0.728139
v 16.165066 0.796309 -0.728139
v 20.710693 0.572383 -0.655299
v 16.165066 0.572383 -0.655299
v 20.710693 0.348457 -0.728139
v 16.165066 0.348457 -0.728139
v 21.218624 4.487992 -1.068319
v 20.645809 4.487992 -1.068319
v 20.645809 4.540893 -1.068319
v 21.218624 4.540893 -1.068319
v 21.218624 4.487992 -0.489907
v 20.645809 4.487992 -0.489907
v 20.645809 4.540893 -0.489907
v 20.774059 4.589341 -0.938819
v 21.090378 4.589341 -0.938819
v 20.774059 4.589341 -0.619407
v 20.825680 4.620100 -0.671536
v 20.825680 4.620100 -0.886692
v 21.038757 4.620100 -0.886692
v 21.038757 4.620100 -0.671536
v 21.090378 4.589341 -0.619407
v 21.218624 4.540893 -0.489907
v 20.993317 4.659074 -0.840812
v 20.993317 4.659074 -0.717414
v 20.871117 4.659074 -0.717414
v 20.871117 4.659074 -0.840812
v 16.165066 -0.116594 -0.560075
v 16.165066 0.348457 -0.560075
v 16.165066 0.348457 -0.998154
v 16.165066 -0.116594 -0.998154
vt 0.385897 0.790507
vt 0.352012 0.790507
vt 0.352012 0.760972
vt 0.385897 0.760972
vt 0.036518 0.473318
vt 0.372894 0.473318
vt 0.372894 0.502853
vt 0.036518 0.502853
vt 0.036518 0.502853
vt 0.372894 0.502853
vt 0.372894 0.473318
vt 0.036518 0.473318
vt 0.344869 0.467874
vt 0.004193 0.467874
vt 0.004193 0.437669
vt 0.344869 0.437669
vt 0.312639 0.797710
vt 0.312639 0.510345
vt 0.282522 0.510345
vt 0.282522 0.797710
vt 0.312639 0.797710
vt 0.312639 0.510345
vt 0.282522 0.510345
vt 0.282522 0.797710
vt 0.312639 0.797710
vt 0.312639 0.510345
vt 0.282522 0.510345
vt 0.282522 0.797710
vt 0.317787 0.797468
vt 0.317787 0.507975
vt 0.348423 0.507975
vt 0.348423 0.797468
vt 0.277687 0.782487
vt 0.277687 0.798518
vt 0.001953 0.798518
vt 0.001953 0.782487
vt 0.350519 0.423804
vt 0.350519 0.430745
vt 0.041065 0.430745
vt 0.041065 0.423804
vt 0.277687 0.766456
vt 0.001953 0.766456
vt 0.277687 0.750426
vt 0.001953 0.750426
vt 0.277687 0.734395
vt 0.001953 0.734395
vt 0.277687 0.718365
vt 0.001953 0.718365
vt 0.277687 0.702334
vt 0.001953 0.702334
vt 0.277687 0.686304
vt 0.001953 0.686304
vt 0.277687 0.670273
vt 0.001953 0.670273
vt 0.277687 0.654243
vt 0.001953 0.654243
vt 0.277687 0.638212
vt 0.001953 0.638212
vt 0.277687 0.622181
vt 0.001953 0.622181
vt 0.277687 0.606151
vt 0.001953 0.606151
vt 0.277687 0.590120
vt 0.001953 0.590120
vt 0.277687 0.574090
vt 0.001953 0.574090
vt 0.277687 0.558059
vt 0.001953 0.558059
vt 0.277687 0.542029
vt 0.001953 0.542029
vt 0.277687 0.525998
vt 0.001953 0.525998
vt 0.277687 0.509968
vt 0.001953 0.509968
vt 0.001953 0.782487
vt 0.001953 0.798518
vt 0.277687 0.798518
vt 0.277687 0.782487
vt 0.001953 0.766456
vt 0.277687 0.766456
vt 0.001953 0.750426
vt 0.277687 0.750426
vt 0.001953 0.734395
vt 0.277687 0.734395
vt 0.001953 0.718365
vt 0.277687 0.718365
vt 0.001953 0.702334
vt 0.277687 0.702334
vt 0.001953 0.686304
vt 0.277687 0.686304
vt 0.001953 0.670273
vt 0.277687 0.670273
vt 0.001953 0.654243
vt 0.277687 0.654243
vt 0.001953 0.638212
vt 0.277687 0.638212
vt 0.001953 0.622181
vt 0.277687 0.622181
vt 0.001953 0.606151
vt 0.277687 0.606151
vt 0.001953 0.590120
vt 0.277687 0.590120
vt 0.001953 0.574090
vt 0.277687 0.574090
vt 0.001953 0.558059
vt 0.277687 0.558059
vt 0.001953 0.542029
vt 0.277687 0.542029
vt 0.001953 0.525998
vt 0.277687 0.525998
vt 0.001953 0.509968
vt 0.277687 0.509968
vt 0.385719 0.691691
vt 0.386824 0.628948
vt 0.381029 0.628846
vt 0.379924 0.691589
vt 0.370548 0.753063
vt 0.354743 0.753063
vt 0.354743 0.737103
vt 0.370548 0.737103
vt 0.385719 0.691691
vt 0.386824 0.628948
vt 0.381029 0.628846
vt 0.379924 0.691589
vt 0.365637 0.642627
vt 0.365027 0.677275
vt 0.365637 0.642627
vt 0.365027 0.677275
vt 0.358907 0.648165
vt 0.358497 0.671503
vt 0.358907 0.648165
vt 0.358497 0.671503
vt 0.358907 0.648165
vt 0.358497 0.671503
vt 0.365027 0.677275
vt 0.365637 0.642627
vt 0.381029 0.628846
vt 0.379924 0.691589
vt 0.358907 0.648165
vt 0.358497 0.671503
vt 0.365027 0.677275
vt 0.365637 0.642627
vt 0.381029 0.628846
vt 0.379924 0.691589
vt 0.385719 0.691691
vt 0.386824 0.628948
vt 0.385719 0.691691
vt 0.386824 0.628948
vt 0.352226 0.653025
vt 0.351990 0.666411
vt 0.352226 0.653025
vt 0.351990 0.666411
vt 0.385578 0.698544
vt 0.385578 0.730065
vt 0.354363 0.730065
vt 0.354363 0.698544
vt 0.352226 0.653025
vt 0.351990 0.666411
vt 0.352226 0.653025
vt 0.351990 0.666411
vn 1.0000 0.0000 0.0000
vn 0.0000 -0.0000 1.0000
vn 0.0000 0.0000 -1.0000
vn 0.0000 1.0000 0.0000
vn -1.0000 0.0000 0.0000
vn 0.0000 0.3093 -0.9510
vn 0.0000 -0.3093 -0.9510
vn 0.0000 0.3093 0.9510
vn 0.0000 -0.3093 0.9510
vn 0.0000 0.3830 -0.9238
vn 0.0000 -1.0000 0.0000
vn -0.9254 0.3791 0.0000
vn 0.0000 0.9189 -0.3945
vn -0.3972 0.9177 0.0000
vn -0.5534 0.8329 0.0000
vn 0.0000 0.8351 -0.5500
vn 0.0000 0.8351 0.5500
vn 0.0000 0.9189 0.3945
vn 0.0000 0.3830 0.9238
vn 0.5534 0.8329 0.0000
vn 0.3972 0.9177 0.0000
vn 0.9254 0.3791 0.0000
vn 0.6510 0.7590 0.0000
vn 0.0000 0.7621 0.6474
vn -0.6510 0.7590 0.0000
vn 0.0000 0.7621 -0.6474
usemtl base.001
s 1
f 1/1/1 2/2/1 3/3/1 4/4/1
f 107/5/2 3/6/2 2/7/2 108/8/2
f 109/9/3 1/10/3 4/11/3 110/12/3
f 108/13/4 2/14/4 1/15/4 109/16/4
f 1/17/1 5/18/1 6/19/1 2/20/1
f 2/21/2 6/22/2 7/23/2 8/24/2
f 9/25/3 10/26/3 5/27/3 1/28/3
f 8/29/5 7/30/5 10/31/5 9/32/5
f 11/33/6 12/34/6 13/35/6 14/36/6
f 12/37/4 15/38/4 16/39/4 13/40/4
f 17/41/7 11/33/7 14/36/7 18/42/7
f 19/43/6 17/41/6 18/42/6 20/44/6
f 21/45/7 19/43/7 20/44/7 22/46/7
f 23/47/6 21/45/6 22/46/6 24/48/6
f 25/49/7 23/47/7 24/48/7 26/50/7
f 27/51/6 25/49/6 26/50/6 28/52/6
f 29/53/7 27/51/7 28/52/7 30/54/7
f 31/55/6 29/53/6 30/54/6 32/56/6
f 33/57/7 31/55/7 32/56/7 34/58/7
f 35/59/6 33/57/6 34/58/6 36/60/6
f 37/61/7 35/59/7 36/60/7 38/62/7
f 39/63/6 37/61/6 38/62/6 40/64/6
f 41/65/7 39/63/7 40/64/7 42/66/7
f 43/67/6 41/65/6 42/66/6 44/68/6
f 45/69/7 43/67/7 44/68/7 46/70/7
f 47/71/6 45/69/6 46/70/6 48/72/6
f 49/73/7 47/71/7 48/72/7 50/74/7
f 51/75/8 16/76/8 15/77/8 52/78/8
f 53/79/9 51/75/9 52/78/9 54/80/9
f 55/81/8 53/79/8 54/80/8 56/82/8
f 57/83/9 55/81/9 56/82/9 58/84/9
f 59/85/8 57/83/8 58/84/8 60/86/8
f 61/87/9 59/85/9 60/86/9 62/88/9
f 63/89/8 61/87/8 62/88/8 64/90/8
f 65/91/9 63/89/9 64/90/9 66/92/9
f 67/93/8 65/91/8 66/92/8 68/94/8
f 69/95/9 67/93/9 68/94/9 70/96/9
f 71/97/8 69/95/8 70/96/8 72/98/8
f 73/99/9 71/97/9 72/98/9 74/100/9
f 75/101/8 73/99/8 74/100/8 76/102/8
f 77/103/9 75/101/9 76/102/9 78/104/9
f 79/105/8 77/103/8 78/104/8 80/106/8
f 81/107/9 79/105/9 80/106/9 82/108/9
f 83/109/8 81/107/8 82/108/8 84/110/8
f 85/111/9 83/109/9 84/110/9 86/112/9
f 87/113/3 88/114/3 89/115/10 90/116/10
f 88/117/11 87/118/11 91/119/11 92/120/11
f 88/121/5 92/122/5 93/123/12 89/124/12
f 90/116/10 89/115/10 94/125/13 95/126/13
f 93/123/12 96/127/14 94/128/14 89/124/12
f 97/129/15 98/130/15 94/128/14 96/127/14
f 98/131/16 99/132/16 95/126/13 94/125/13
f 100/133/17 97/134/17 96/135/18 101/136/18
f 102/137/19 101/136/18 96/135/18 93/138/19
f 99/139/20 100/140/20 101/141/21 95/142/21
f 90/143/22 95/142/21 101/141/21 102/144/22
f 91/145/1 87/146/1 90/143/22 102/144/22
f 92/147/2 91/148/2 102/137/19 93/138/19
f 99/139/20 103/149/23 104/150/23 100/140/20
f 100/133/17 104/151/24 105/152/24 97/134/17
f 106/153/4 105/154/4 104/155/4 103/156/4
f 97/129/15 105/157/25 106/158/25 98/130/15
f 99/132/16 98/131/16 106/159/26 103/160/26
