# Blender v2.90.1 OBJ File: '0,2.blend'
# www.blender.org
mtllib 4.mtl
o house_stuff.004
v 11.590902 -0.116594 1.365383
v 12.158365 -0.116594 1.365383
v 12.158365 0.152814 1.365383
v 11.590904 0.152814 1.365383
v 12.158365 -0.116594 -2.107645
v 12.158365 0.152815 -2.107645
v 11.590904 0.152815 -2.107645
v 11.590902 -0.116594 -2.107645
vt 0.931844 0.238937
vt 0.931844 0.194043
vt 0.946256 0.194043
vt 0.946256 0.238937
vt 0.732766 0.146419
vt 0.929210 0.146419
vt 0.929210 0.166577
vt 0.732766 0.166577
vt 0.733144 0.170878
vt 0.929587 0.170878
vt 0.929587 0.215772
vt 0.733144 0.215772
vt 0.946256 0.146815
vt 0.946256 0.191709
vt 0.931844 0.191709
vt 0.931844 0.146815
vt 0.733066 0.219813
vt 0.929509 0.219813
vt 0.929509 0.239971
vt 0.733066 0.239971
vn 0.0000 0.0000 1.0000
vn 1.0000 0.0000 0.0000
vn 0.0000 1.0000 0.0000
vn 0.0000 0.0000 -1.0000
vn -1.0000 0.0000 0.0000
usemtl base
s 1
f 1/1/1 2/2/1 3/3/1 4/4/1
f 2/5/2 5/6/2 6/7/2 3/8/2
f 7/9/3 4/10/3 3/11/3 6/12/3
f 5/13/4 8/14/4 7/15/4 6/16/4
f 8/17/5 1/18/5 4/19/5 7/20/5
