# Blender v2.90.1 OBJ File: '0,2.blend'
# www.blender.org
mtllib 8.mtl
o house_stuff.008
v -19.196909 -0.116594 1.331783
v -19.196909 0.174520 1.331783
v -19.196909 0.174520 -1.587490
v -19.196909 -0.116594 -1.587490
v -16.277639 -0.116594 1.331783
v -16.277639 0.174520 1.331783
v -16.277639 -0.116594 -1.587490
v -16.277639 0.174520 -1.587490
vt 0.680277 0.910109
vt 0.661701 0.910109
vt 0.661701 0.714825
vt 0.680277 0.714825
vt 0.755323 0.910109
vt 0.736747 0.910109
vt 0.736747 0.714825
vt 0.755323 0.714825
vt 0.730918 0.910109
vt 0.712342 0.910109
vt 0.712342 0.714825
vt 0.730918 0.714825
vt 0.456681 0.911967
vt 0.456681 0.716684
vt 0.651965 0.716684
vt 0.651965 0.911967
vt 0.706909 0.910109
vt 0.688333 0.910109
vt 0.688333 0.714825
vt 0.706909 0.714825
vn -1.0000 0.0000 0.0000
vn 0.0000 0.0000 1.0000
vn 1.0000 0.0000 0.0000
vn 0.0000 1.0000 0.0000
vn 0.0000 0.0000 -1.0000
usemtl base
s 1
f 1/1/1 2/2/1 3/3/1 4/4/1
f 5/5/2 6/6/2 2/7/2 1/8/2
f 7/9/3 8/10/3 6/11/3 5/12/3
f 8/13/4 3/14/4 2/15/4 6/16/4
f 4/17/5 3/18/5 8/19/5 7/20/5
